# xmcd
#
# Track frame offsets:
#	150
#	19557
#	37514
#	58924
#	77014
#	91182
#	115081
#	134165
#	151354
#	168146
#	184482
#	210707
#	230672
#	251856
#
# Disc length: 3588 seconds
#
# Revision: 2
# Processed by: cddbd v1.5.2PL0 Copyright (c) Steve Scherf et al.
# Submitted via: EZCDAudioConverter 7.1.8.1
#
DISCID=b70e020e
DTITLE=任賢齊 - 天將大任 99創世紀 新歌+精選輯 星馬版 1999年 滾石24K金蝶 DE-Magnetic (WAV)
DYEAR=1990
DGENRE=World Pop
TTITLE0=給你幸褔
TTITLE1=燭光
TTITLE2=三更半暝 (阿牛﹐小齊﹐黃品源﹐李正帆 合唱)
TTITLE3=再問一次
TTITLE4=對面的女孩看過來
TTITLE5=只愛你一個人
TTITLE6=我是一隻魚
TTITLE7=我是一隻小小鳥
TTITLE8=冷漠與温柔
TTITLE9=讓你走
TTITLE10=心太軟
TTITLE11=傷心太平洋
TTITLE12=哭個痛快
TTITLE13=一個男人的眼淚
EXTD=
EXTT0=
EXTT1=
EXTT2=
EXTT3=
EXTT4=
EXTT5=
EXTT6=
EXTT7=
EXTT8=
EXTT9=
EXTT10=
EXTT11=
EXTT12=
EXTT13=
PLAYORDER=
